# 3ds Max Wavefront OBJ Exporter v0.97b - (c)2007 guruware
# File Created: 08.10.2024 12:40:09

mtllib Wall.mtl

#
# object Body
#

v  -0.0500 0.0000 -1.7599
v  0.0500 0.0000 -1.7599
v  0.0500 0.0000 -1.6099
v  -0.0500 0.0000 -1.6099
v  0.0500 1.5000 -1.6099
v  0.0500 1.7019 -1.7599
v  -0.0500 1.7019 -1.7599
v  -0.0500 1.5000 -1.6099
v  0.0500 0.0000 -1.9099
v  -0.0500 0.0000 -1.9099
v  -0.0500 1.5000 -1.9099
v  0.0500 1.5000 -1.9099
v  0.0479 1.0069 -0.0500
v  0.0479 1.0069 -1.9700
v  0.0979 1.0069 -1.9700
v  0.0979 1.0069 -0.0500
v  0.0479 1.2069 -0.0500
v  0.0979 1.2069 -0.0500
v  0.0979 1.2069 -1.9700
v  0.0479 1.2069 -1.9700
v  0.0479 0.3379 -0.0500
v  0.0479 0.3379 -1.9700
v  0.0979 0.3379 -1.9700
v  0.0979 0.3379 -0.0500
v  0.0479 0.5379 -0.0500
v  0.0979 0.5379 -0.0500
v  0.0979 0.5379 -1.9700
v  0.0479 0.5379 -1.9700
v  -0.0500 0.0000 -0.2599
v  0.0500 0.0000 -0.2599
v  0.0500 0.0000 -0.1099
v  -0.0500 0.0000 -0.1099
v  0.0500 1.5000 -0.1099
v  0.0500 1.7019 -0.2599
v  -0.0500 1.7019 -0.2599
v  -0.0500 1.5000 -0.1099
v  0.0500 0.0000 -0.4099
v  -0.0500 0.0000 -0.4099
v  -0.0500 1.5000 -0.4099
v  0.0500 1.5000 -0.4099
v  -0.0500 0.0000 -0.7599
v  0.0500 0.0000 -0.7599
v  0.0500 0.0000 -0.6099
v  -0.0500 0.0000 -0.6099
v  0.0500 1.5000 -0.6099
v  0.0500 1.7019 -0.7599
v  -0.0500 1.7019 -0.7599
v  -0.0500 1.5000 -0.6099
v  0.0500 0.0000 -0.9099
v  -0.0500 0.0000 -0.9099
v  -0.0500 1.5000 -0.9099
v  0.0500 1.5000 -0.9099
v  -0.0500 0.0000 -1.2599
v  0.0500 0.0000 -1.2599
v  0.0500 0.0000 -1.1099
v  -0.0500 0.0000 -1.1099
v  0.0500 1.5000 -1.1099
v  0.0500 1.7019 -1.2599
v  -0.0500 1.7019 -1.2599
v  -0.0500 1.5000 -1.1099
v  0.0500 0.0000 -1.4099
v  -0.0500 0.0000 -1.4099
v  -0.0500 1.5000 -1.4099
v  0.0500 1.5000 -1.4099
v  -0.0500 0.0000 -3.7000
v  0.0500 0.0000 -3.7000
v  0.0500 0.0000 -3.5500
v  -0.0500 0.0000 -3.5500
v  0.0500 1.5000 -3.5500
v  0.0500 1.7019 -3.7000
v  -0.0500 1.7019 -3.7000
v  -0.0500 1.5000 -3.5500
v  0.0500 0.0000 -3.8500
v  -0.0500 0.0000 -3.8500
v  -0.0500 1.5000 -3.8500
v  0.0500 1.5000 -3.8500
v  0.0479 1.0069 -4.8898
v  0.0979 1.0069 -4.8898
v  0.0979 1.2069 -4.8898
v  0.0479 1.2069 -4.8898
v  0.0479 0.3379 -4.8898
v  0.0979 0.3379 -4.8898
v  0.0979 0.5379 -4.8898
v  0.0479 0.5379 -4.8898
v  -0.0500 0.0000 -2.2000
v  0.0500 0.0000 -2.2000
v  0.0500 0.0000 -2.0500
v  -0.0500 0.0000 -2.0500
v  0.0500 1.5000 -2.0500
v  0.0500 1.7019 -2.2000
v  -0.0500 1.7019 -2.2000
v  -0.0500 1.5000 -2.0500
v  0.0500 0.0000 -2.3500
v  -0.0500 0.0000 -2.3500
v  -0.0500 1.5000 -2.3500
v  0.0500 1.5000 -2.3500
v  -0.0500 0.0000 -2.7000
v  0.0500 0.0000 -2.7000
v  0.0500 0.0000 -2.5500
v  -0.0500 0.0000 -2.5500
v  0.0500 1.5000 -2.5500
v  0.0500 1.7019 -2.7000
v  -0.0500 1.7019 -2.7000
v  -0.0500 1.5000 -2.5500
v  0.0500 0.0000 -2.8500
v  -0.0500 0.0000 -2.8500
v  -0.0500 1.5000 -2.8500
v  0.0500 1.5000 -2.8500
v  -0.0500 0.0000 -3.2000
v  0.0500 0.0000 -3.2000
v  0.0500 0.0000 -3.0500
v  -0.0500 0.0000 -3.0500
v  0.0500 1.5000 -3.0500
v  0.0500 1.7019 -3.2000
v  -0.0500 1.7019 -3.2000
v  -0.0500 1.5000 -3.0500
v  0.0500 0.0000 -3.3500
v  -0.0500 0.0000 -3.3500
v  -0.0500 1.5000 -3.3500
v  0.0500 1.5000 -3.3500
v  -0.0500 0.0000 -4.6476
v  0.0500 0.0000 -4.6476
v  0.0500 0.0000 -4.4976
v  -0.0500 0.0000 -4.4976
v  0.0500 1.5000 -4.4976
v  0.0500 1.7019 -4.6476
v  -0.0500 1.7019 -4.6476
v  -0.0500 1.5000 -4.4976
v  0.0500 0.0000 -4.7976
v  -0.0500 0.0000 -4.7976
v  -0.0500 1.5000 -4.7976
v  0.0500 1.5000 -4.7976
v  -0.0500 0.0000 -4.1476
v  0.0500 0.0000 -4.1476
v  0.0500 0.0000 -3.9976
v  -0.0500 0.0000 -3.9976
v  0.0500 1.5000 -3.9976
v  0.0500 1.7019 -4.1476
v  -0.0500 1.7019 -4.1476
v  -0.0500 1.5000 -3.9976
v  0.0500 0.0000 -4.2976
v  -0.0500 0.0000 -4.2976
v  -0.0500 1.5000 -4.2976
v  0.0500 1.5000 -4.2976
# 144 vertices

vn 0.0000 -1.0000 -0.0000
vn 0.0000 0.5964 0.8027
vn 0.0000 1.0000 -0.0000
vn 0.0000 0.0000 1.0000
vn 1.0000 0.0000 -0.0000
vn 0.0000 0.0000 -1.0000
vn -1.0000 0.0000 -0.0000
vn 0.0000 0.5964 -0.8027
vn 0.0000 1.0000 0.0000
# 9 vertex normals

vt 0.3506 0.9900 0.0000
vt 0.3506 0.9730 0.0000
vt 0.3760 0.9730 0.0000
vt 0.3760 0.9900 0.0000
vt 0.5797 0.7999 0.0000
vt 0.6139 0.7999 0.0000
vt 0.6139 0.8169 0.0000
vt 0.5797 0.8169 0.0000
vt 0.3251 0.8169 0.0000
vt 0.3251 0.7999 0.0000
vt 0.0100 0.4045 0.0000
vt 0.2988 0.4045 0.0000
vt 0.2646 0.4300 0.0000
vt 0.0100 0.4300 0.0000
vt 0.6814 0.1343 0.0000
vt 0.6814 0.1173 0.0000
vt 0.9360 0.1173 0.0000
vt 0.9360 0.1343 0.0000
vt 0.3251 0.2501 0.0000
vt 0.6139 0.2501 0.0000
vt 0.5797 0.2756 0.0000
vt 0.3251 0.2756 0.0000
vt 0.3251 0.9900 0.0000
vt 0.3251 0.9730 0.0000
vt 0.9702 0.1173 0.0000
vt 0.9702 0.1343 0.0000
vt 0.0100 0.3791 0.0000
vt 0.2646 0.3791 0.0000
vt 0.3251 0.2247 0.0000
vt 0.5797 0.2247 0.0000
vt 0.9768 0.6192 0.0000
vt 0.6510 0.6192 0.0000
vt 0.6510 0.6107 0.0000
vt 0.9768 0.6107 0.0000
vt 0.3251 0.6964 0.0000
vt 0.3251 0.6879 0.0000
vt 0.6510 0.6879 0.0000
vt 0.6510 0.6964 0.0000
vt 0.9553 0.2332 0.0000
vt 0.9553 0.2247 0.0000
vt 0.9893 0.2247 0.0000
vt 0.9893 0.2332 0.0000
vt 0.6617 0.0976 0.0000
vt 0.3358 0.0976 0.0000
vt 0.3358 0.0637 0.0000
vt 0.6617 0.0637 0.0000
vt 0.3358 0.0439 0.0000
vt 0.0100 0.0439 0.0000
vt 0.0100 0.0100 0.0000
vt 0.3358 0.0100 0.0000
vt 0.9768 0.6540 0.0000
vt 0.6510 0.6540 0.0000
vt 0.6510 0.6455 0.0000
vt 0.9768 0.6455 0.0000
vt 0.0100 0.7736 0.0000
vt 0.0100 0.7652 0.0000
vt 0.3358 0.7652 0.0000
vt 0.3358 0.7736 0.0000
vt 0.9553 0.3876 0.0000
vt 0.9553 0.3791 0.0000
vt 0.9893 0.3791 0.0000
vt 0.9893 0.3876 0.0000
vt 0.6617 0.2049 0.0000
vt 0.3358 0.2049 0.0000
vt 0.3358 0.1710 0.0000
vt 0.6617 0.1710 0.0000
vt 0.3358 0.1513 0.0000
vt 0.0100 0.1513 0.0000
vt 0.0100 0.1173 0.0000
vt 0.3358 0.1173 0.0000
vt 0.7429 0.9035 0.0000
vt 0.7429 0.8865 0.0000
vt 0.7684 0.8865 0.0000
vt 0.7684 0.9035 0.0000
vt 0.2646 0.9730 0.0000
vt 0.2988 0.9730 0.0000
vt 0.2988 0.9900 0.0000
vt 0.2646 0.9900 0.0000
vt 0.0100 0.9900 0.0000
vt 0.0100 0.9730 0.0000
vt 0.0100 0.7134 0.0000
vt 0.2988 0.7134 0.0000
vt 0.2646 0.7389 0.0000
vt 0.0100 0.7389 0.0000
vt 0.6402 0.8169 0.0000
vt 0.6402 0.7999 0.0000
vt 0.8948 0.7999 0.0000
vt 0.8948 0.8169 0.0000
vt 0.0100 0.4818 0.0000
vt 0.2988 0.4818 0.0000
vt 0.2646 0.5072 0.0000
vt 0.0100 0.5072 0.0000
vt 0.7174 0.9035 0.0000
vt 0.7174 0.8865 0.0000
vt 0.9290 0.7999 0.0000
vt 0.9290 0.8169 0.0000
vt 0.0100 0.6879 0.0000
vt 0.2646 0.6879 0.0000
vt 0.0100 0.4563 0.0000
vt 0.2646 0.4563 0.0000
vt 0.4278 0.9900 0.0000
vt 0.4278 0.9730 0.0000
vt 0.4532 0.9730 0.0000
vt 0.4532 0.9900 0.0000
vt 0.9360 0.0637 0.0000
vt 0.9702 0.0637 0.0000
vt 0.9702 0.0806 0.0000
vt 0.9360 0.0806 0.0000
vt 0.6814 0.0806 0.0000
vt 0.6814 0.0637 0.0000
vt 0.3251 0.5590 0.0000
vt 0.6139 0.5590 0.0000
vt 0.5797 0.5844 0.0000
vt 0.3251 0.5844 0.0000
vt 0.6402 0.5505 0.0000
vt 0.6402 0.5335 0.0000
vt 0.8948 0.5335 0.0000
vt 0.8948 0.5505 0.0000
vt 0.0100 0.5590 0.0000
vt 0.2988 0.5590 0.0000
vt 0.2646 0.5844 0.0000
vt 0.0100 0.5844 0.0000
vt 0.4023 0.9900 0.0000
vt 0.4023 0.9730 0.0000
vt 0.9290 0.5335 0.0000
vt 0.9290 0.5505 0.0000
vt 0.3251 0.5335 0.0000
vt 0.5797 0.5335 0.0000
vt 0.0100 0.5335 0.0000
vt 0.2646 0.5335 0.0000
vt 0.6657 0.9467 0.0000
vt 0.6657 0.9298 0.0000
vt 0.6911 0.9298 0.0000
vt 0.6911 0.9467 0.0000
vt 0.2646 0.8432 0.0000
vt 0.2988 0.8432 0.0000
vt 0.2988 0.8602 0.0000
vt 0.2646 0.8602 0.0000
vt 0.0100 0.8602 0.0000
vt 0.0100 0.8432 0.0000
vt 0.6402 0.2501 0.0000
vt 0.9290 0.2501 0.0000
vt 0.8948 0.2756 0.0000
vt 0.6402 0.2756 0.0000
vt 0.0100 0.8169 0.0000
vt 0.0100 0.7999 0.0000
vt 0.2646 0.7999 0.0000
vt 0.2646 0.8169 0.0000
vt 0.3251 0.3273 0.0000
vt 0.6139 0.3273 0.0000
vt 0.5797 0.3528 0.0000
vt 0.3251 0.3528 0.0000
vt 0.6402 0.9467 0.0000
vt 0.6402 0.9298 0.0000
vt 0.2988 0.7999 0.0000
vt 0.2988 0.8169 0.0000
vt 0.6402 0.2247 0.0000
vt 0.8948 0.2247 0.0000
vt 0.3251 0.3019 0.0000
vt 0.5797 0.3019 0.0000
vt 0.6657 0.9035 0.0000
vt 0.6657 0.8865 0.0000
vt 0.6911 0.8865 0.0000
vt 0.6911 0.9035 0.0000
vt 0.2646 0.9298 0.0000
vt 0.2988 0.9298 0.0000
vt 0.2988 0.9467 0.0000
vt 0.2646 0.9467 0.0000
vt 0.0100 0.9467 0.0000
vt 0.0100 0.9298 0.0000
vt 0.0100 0.2501 0.0000
vt 0.2988 0.2501 0.0000
vt 0.2646 0.2756 0.0000
vt 0.0100 0.2756 0.0000
vt 0.6814 0.0270 0.0000
vt 0.6814 0.0100 0.0000
vt 0.9360 0.0100 0.0000
vt 0.9360 0.0270 0.0000
vt 0.0100 0.3273 0.0000
vt 0.2988 0.3273 0.0000
vt 0.2646 0.3528 0.0000
vt 0.0100 0.3528 0.0000
vt 0.6402 0.9035 0.0000
vt 0.6402 0.8865 0.0000
vt 0.9702 0.0100 0.0000
vt 0.9702 0.0270 0.0000
vt 0.0100 0.2247 0.0000
vt 0.2646 0.2247 0.0000
vt 0.0100 0.3019 0.0000
vt 0.2646 0.3019 0.0000
vt 0.3251 0.6192 0.0000
vt 0.3251 0.6107 0.0000
vt 0.9768 0.6879 0.0000
vt 0.9768 0.6964 0.0000
vt 0.0100 0.0976 0.0000
vt 0.0100 0.0637 0.0000
vt 0.9553 0.3104 0.0000
vt 0.9553 0.3019 0.0000
vt 0.9893 0.3019 0.0000
vt 0.9893 0.3104 0.0000
vt 0.6617 0.0439 0.0000
vt 0.6617 0.0100 0.0000
vt 0.3251 0.6540 0.0000
vt 0.3251 0.6455 0.0000
vt 0.6617 0.7652 0.0000
vt 0.6617 0.7736 0.0000
vt 0.0100 0.2049 0.0000
vt 0.0100 0.1710 0.0000
vt 0.9553 0.4648 0.0000
vt 0.9553 0.4563 0.0000
vt 0.9893 0.4563 0.0000
vt 0.9893 0.4648 0.0000
vt 0.6617 0.1513 0.0000
vt 0.6617 0.1173 0.0000
vt 0.6657 0.9900 0.0000
vt 0.6657 0.9730 0.0000
vt 0.6911 0.9730 0.0000
vt 0.6911 0.9900 0.0000
vt 0.5797 0.8865 0.0000
vt 0.6139 0.8865 0.0000
vt 0.6139 0.9035 0.0000
vt 0.5797 0.9035 0.0000
vt 0.3251 0.9035 0.0000
vt 0.3251 0.8865 0.0000
vt 0.6402 0.4045 0.0000
vt 0.9290 0.4045 0.0000
vt 0.8948 0.4300 0.0000
vt 0.6402 0.4300 0.0000
vt 0.6402 0.8602 0.0000
vt 0.6402 0.8432 0.0000
vt 0.8948 0.8432 0.0000
vt 0.8948 0.8602 0.0000
vt 0.0100 0.6362 0.0000
vt 0.2988 0.6362 0.0000
vt 0.2646 0.6616 0.0000
vt 0.0100 0.6616 0.0000
vt 0.6402 0.9900 0.0000
vt 0.6402 0.9730 0.0000
vt 0.9290 0.8432 0.0000
vt 0.9290 0.8602 0.0000
vt 0.6402 0.3791 0.0000
vt 0.8948 0.3791 0.0000
vt 0.0100 0.6107 0.0000
vt 0.2646 0.6107 0.0000
vt 0.7429 0.9467 0.0000
vt 0.7429 0.9298 0.0000
vt 0.7684 0.9298 0.0000
vt 0.7684 0.9467 0.0000
vt 0.5797 0.9298 0.0000
vt 0.6139 0.9298 0.0000
vt 0.6139 0.9467 0.0000
vt 0.5797 0.9467 0.0000
vt 0.3251 0.9467 0.0000
vt 0.3251 0.9298 0.0000
vt 0.6402 0.4818 0.0000
vt 0.9290 0.4818 0.0000
vt 0.8948 0.5072 0.0000
vt 0.6402 0.5072 0.0000
vt 0.0100 0.9035 0.0000
vt 0.0100 0.8865 0.0000
vt 0.2646 0.8865 0.0000
vt 0.2646 0.9035 0.0000
vt 0.3251 0.4818 0.0000
vt 0.6139 0.4818 0.0000
vt 0.5797 0.5072 0.0000
vt 0.3251 0.5072 0.0000
vt 0.7174 0.9467 0.0000
vt 0.7174 0.9298 0.0000
vt 0.2988 0.8865 0.0000
vt 0.2988 0.9035 0.0000
vt 0.6402 0.4563 0.0000
vt 0.8948 0.4563 0.0000
vt 0.3251 0.4563 0.0000
vt 0.5797 0.4563 0.0000
vt 0.8201 0.9035 0.0000
vt 0.8201 0.8865 0.0000
vt 0.8456 0.8865 0.0000
vt 0.8456 0.9035 0.0000
vt 0.5797 0.8432 0.0000
vt 0.6139 0.8432 0.0000
vt 0.6139 0.8602 0.0000
vt 0.5797 0.8602 0.0000
vt 0.3251 0.8602 0.0000
vt 0.3251 0.8432 0.0000
vt 0.6402 0.3273 0.0000
vt 0.9290 0.3273 0.0000
vt 0.8948 0.3528 0.0000
vt 0.6402 0.3528 0.0000
vt 0.6814 0.1880 0.0000
vt 0.6814 0.1710 0.0000
vt 0.9360 0.1710 0.0000
vt 0.9360 0.1880 0.0000
vt 0.3251 0.4045 0.0000
vt 0.6139 0.4045 0.0000
vt 0.5797 0.4300 0.0000
vt 0.3251 0.4300 0.0000
vt 0.7947 0.9035 0.0000
vt 0.7947 0.8865 0.0000
vt 0.9702 0.1710 0.0000
vt 0.9702 0.1880 0.0000
vt 0.6402 0.3019 0.0000
vt 0.8948 0.3019 0.0000
vt 0.3251 0.3791 0.0000
vt 0.5797 0.3791 0.0000
# 304 texture coords

g Body
usemtl Wall
s 2
f 1/1/1 2/2/1 3/3/1 
f 3/3/1 4/4/1 1/1/1 
s 4
f 5/5/2 6/6/3 7/7/3 
f 7/7/3 8/8/2 5/5/2 
s 8
f 4/9/4 3/10/4 5/5/4 
f 5/5/4 8/8/4 4/9/4 
s 16
f 2/11/5 6/12/5 5/13/5 
f 5/13/5 3/14/5 2/11/5 
s 32
f 9/15/6 10/16/6 11/17/6 
f 11/17/6 12/18/6 9/15/6 
s 64
f 1/19/7 7/20/7 11/21/7 
f 11/21/7 10/22/7 1/19/7 
s 2
f 10/23/1 9/24/1 2/2/1 
f 2/2/1 1/1/1 10/23/1 
s 4
f 12/18/8 11/17/8 7/25/3 
f 7/25/3 6/26/3 12/18/8 
s 16
f 9/27/5 12/28/5 6/12/5 
f 6/12/5 2/11/5 9/27/5 
s 64
f 4/29/7 8/30/7 7/20/7 
f 7/20/7 1/19/7 4/29/7 
s 2
f 13/31/1 14/32/1 15/33/1 
f 15/33/1 16/34/1 13/31/1 
s 4
f 17/35/3 18/36/3 19/37/3 
f 19/37/3 20/38/3 17/35/3 
s 8
f 13/39/4 16/40/4 18/41/4 
f 18/41/4 17/42/4 13/39/4 
s 16
f 16/43/5 15/44/5 19/45/5 
f 19/45/5 18/46/5 16/43/5 
s 64
f 14/47/7 13/48/7 17/49/7 
f 17/49/7 20/50/7 14/47/7 
s 2
f 21/51/1 22/52/1 23/53/1 
f 23/53/1 24/54/1 21/51/1 
s 4
f 25/55/3 26/56/3 27/57/3 
f 27/57/3 28/58/3 25/55/3 
s 8
f 21/59/4 24/60/4 26/61/4 
f 26/61/4 25/62/4 21/59/4 
s 16
f 24/63/5 23/64/5 27/65/5 
f 27/65/5 26/66/5 24/63/5 
s 64
f 22/67/7 21/68/7 25/69/7 
f 25/69/7 28/70/7 22/67/7 
s 2
f 29/71/1 30/72/1 31/73/1 
f 31/73/1 32/74/1 29/71/1 
s 4
f 33/75/2 34/76/3 35/77/3 
f 35/77/3 36/78/2 33/75/2 
s 8
f 32/79/4 31/80/4 33/75/4 
f 33/75/4 36/78/4 32/79/4 
s 16
f 30/81/5 34/82/5 33/83/5 
f 33/83/5 31/84/5 30/81/5 
s 32
f 37/85/6 38/86/6 39/87/6 
f 39/87/6 40/88/6 37/85/6 
s 64
f 29/89/7 35/90/7 39/91/7 
f 39/91/7 38/92/7 29/89/7 
s 2
f 38/93/1 37/94/1 30/72/1 
f 30/72/1 29/71/1 38/93/1 
s 4
f 40/88/8 39/87/8 35/95/3 
f 35/95/3 34/96/3 40/88/8 
s 16
f 37/97/5 40/98/5 34/82/5 
f 34/82/5 30/81/5 37/97/5 
s 64
f 32/99/7 36/100/7 35/90/7 
f 35/90/7 29/89/7 32/99/7 
s 2
f 41/101/1 42/102/1 43/103/1 
f 43/103/1 44/104/1 41/101/1 
s 4
f 45/105/2 46/106/3 47/107/3 
f 47/107/3 48/108/2 45/105/2 
s 8
f 44/109/4 43/110/4 45/105/4 
f 45/105/4 48/108/4 44/109/4 
s 16
f 42/111/5 46/112/5 45/113/5 
f 45/113/5 43/114/5 42/111/5 
s 32
f 49/115/6 50/116/6 51/117/6 
f 51/117/6 52/118/6 49/115/6 
s 64
f 41/119/7 47/120/7 51/121/7 
f 51/121/7 50/122/7 41/119/7 
s 2
f 50/123/1 49/124/1 42/102/1 
f 42/102/1 41/101/1 50/123/1 
s 4
f 52/118/8 51/117/8 47/125/3 
f 47/125/3 46/126/3 52/118/8 
s 16
f 49/127/5 52/128/5 46/112/5 
f 46/112/5 42/111/5 49/127/5 
s 64
f 44/129/7 48/130/7 47/120/7 
f 47/120/7 41/119/7 44/129/7 
s 2
f 53/131/1 54/132/1 55/133/1 
f 55/133/1 56/134/1 53/131/1 
s 4
f 57/135/2 58/136/9 59/137/9 
f 59/137/9 60/138/2 57/135/2 
s 8
f 56/139/4 55/140/4 57/135/4 
f 57/135/4 60/138/4 56/139/4 
s 16
f 54/141/5 58/142/5 57/143/5 
f 57/143/5 55/144/5 54/141/5 
s 32
f 61/145/6 62/146/6 63/147/6 
f 63/147/6 64/148/6 61/145/6 
s 64
f 53/149/7 59/150/7 63/151/7 
f 63/151/7 62/152/7 53/149/7 
s 2
f 62/153/1 61/154/1 54/132/1 
f 54/132/1 53/131/1 62/153/1 
s 4
f 64/148/8 63/147/8 59/155/9 
f 59/155/9 58/156/9 64/148/8 
s 16
f 61/157/5 64/158/5 58/142/5 
f 58/142/5 54/141/5 61/157/5 
s 64
f 56/159/7 60/160/7 59/150/7 
f 59/150/7 53/149/7 56/159/7 
s 2
f 65/161/1 66/162/1 67/163/1 
f 67/163/1 68/164/1 65/161/1 
s 4
f 69/165/2 70/166/9 71/167/9 
f 71/167/9 72/168/2 69/165/2 
s 8
f 68/169/4 67/170/4 69/165/4 
f 69/165/4 72/168/4 68/169/4 
s 16
f 66/171/5 70/172/5 69/173/5 
f 69/173/5 67/174/5 66/171/5 
s 32
f 73/175/6 74/176/6 75/177/6 
f 75/177/6 76/178/6 73/175/6 
s 64
f 65/179/7 71/180/7 75/181/7 
f 75/181/7 74/182/7 65/179/7 
s 2
f 74/183/1 73/184/1 66/162/1 
f 66/162/1 65/161/1 74/183/1 
s 4
f 76/178/8 75/177/8 71/185/9 
f 71/185/9 70/186/9 76/178/8 
s 16
f 73/187/5 76/188/5 70/172/5 
f 70/172/5 66/171/5 73/187/5 
s 64
f 68/189/7 72/190/7 71/180/7 
f 71/180/7 65/179/7 68/189/7 
s 2
f 14/32/1 77/191/1 78/192/1 
f 78/192/1 15/33/1 14/32/1 
s 4
f 20/38/3 19/37/3 79/193/3 
f 79/193/3 80/194/3 20/38/3 
s 16
f 15/44/5 78/195/5 79/196/5 
f 79/196/5 19/45/5 15/44/5 
s 32
f 78/197/6 77/198/6 80/199/6 
f 80/199/6 79/200/6 78/197/6 
s 64
f 77/201/7 14/47/7 20/50/7 
f 20/50/7 80/202/7 77/201/7 
s 2
f 22/52/1 81/203/1 82/204/1 
f 82/204/1 23/53/1 22/52/1 
s 4
f 28/58/3 27/57/3 83/205/3 
f 83/205/3 84/206/3 28/58/3 
s 16
f 23/64/5 82/207/5 83/208/5 
f 83/208/5 27/65/5 23/64/5 
s 32
f 82/209/6 81/210/6 84/211/6 
f 84/211/6 83/212/6 82/209/6 
s 64
f 81/213/7 22/67/7 28/70/7 
f 28/70/7 84/214/7 81/213/7 
s 2
f 85/215/1 86/216/1 87/217/1 
f 87/217/1 88/218/1 85/215/1 
s 4
f 89/219/2 90/220/3 91/221/3 
f 91/221/3 92/222/2 89/219/2 
s 8
f 88/223/4 87/224/4 89/219/4 
f 89/219/4 92/222/4 88/223/4 
s 16
f 86/225/5 90/226/5 89/227/5 
f 89/227/5 87/228/5 86/225/5 
s 32
f 93/229/6 94/230/6 95/231/6 
f 95/231/6 96/232/6 93/229/6 
s 64
f 85/233/7 91/234/7 95/235/7 
f 95/235/7 94/236/7 85/233/7 
s 2
f 94/237/1 93/238/1 86/216/1 
f 86/216/1 85/215/1 94/237/1 
s 4
f 96/232/8 95/231/8 91/239/3 
f 91/239/3 90/240/3 96/232/8 
s 16
f 93/241/5 96/242/5 90/226/5 
f 90/226/5 86/225/5 93/241/5 
s 64
f 88/243/7 92/244/7 91/234/7 
f 91/234/7 85/233/7 88/243/7 
s 2
f 97/245/1 98/246/1 99/247/1 
f 99/247/1 100/248/1 97/245/1 
s 4
f 101/249/2 102/250/3 103/251/3 
f 103/251/3 104/252/2 101/249/2 
s 8
f 100/253/4 99/254/4 101/249/4 
f 101/249/4 104/252/4 100/253/4 
s 16
f 98/255/5 102/256/5 101/257/5 
f 101/257/5 99/258/5 98/255/5 
s 32
f 105/259/6 106/260/6 107/261/6 
f 107/261/6 108/262/6 105/259/6 
s 64
f 97/263/7 103/264/7 107/265/7 
f 107/265/7 106/266/7 97/263/7 
s 2
f 106/267/1 105/268/1 98/246/1 
f 98/246/1 97/245/1 106/267/1 
s 4
f 108/262/8 107/261/8 103/269/3 
f 103/269/3 102/270/3 108/262/8 
s 16
f 105/271/5 108/272/5 102/256/5 
f 102/256/5 98/255/5 105/271/5 
s 64
f 100/273/7 104/274/7 103/264/7 
f 103/264/7 97/263/7 100/273/7 
s 2
f 109/275/1 110/276/1 111/277/1 
f 111/277/1 112/278/1 109/275/1 
s 4
f 113/279/2 114/280/3 115/281/3 
f 115/281/3 116/282/2 113/279/2 
s 8
f 112/283/4 111/284/4 113/279/4 
f 113/279/4 116/282/4 112/283/4 
s 16
f 110/285/5 114/286/5 113/287/5 
f 113/287/5 111/288/5 110/285/5 
s 32
f 117/289/6 118/290/6 119/291/6 
f 119/291/6 120/292/6 117/289/6 
s 64
f 109/293/7 115/294/7 119/295/7 
f 119/295/7 118/296/7 109/293/7 
s 2
f 118/297/1 117/298/1 110/276/1 
f 110/276/1 109/275/1 118/297/1 
s 4
f 120/292/8 119/291/8 115/299/3 
f 115/299/3 114/300/3 120/292/8 
s 16
f 117/301/5 120/302/5 114/286/5 
f 114/286/5 110/285/5 117/301/5 
s 64
f 112/303/7 116/304/7 115/294/7 
f 115/294/7 109/293/7 112/303/7 
s 2
f 121/161/1 122/162/1 123/163/1 
f 123/163/1 124/164/1 121/161/1 
s 4
f 125/165/2 126/166/3 127/167/9 
f 127/167/9 128/168/2 125/165/2 
s 8
f 124/169/4 123/170/4 125/165/4 
f 125/165/4 128/168/4 124/169/4 
s 16
f 122/171/5 126/172/5 125/173/5 
f 125/173/5 123/174/5 122/171/5 
s 32
f 129/175/6 130/176/6 131/177/6 
f 131/177/6 132/178/6 129/175/6 
s 64
f 121/179/7 127/180/7 131/181/7 
f 131/181/7 130/182/7 121/179/7 
s 2
f 130/183/1 129/184/1 122/162/1 
f 122/162/1 121/161/1 130/183/1 
s 4
f 132/178/8 131/177/8 127/185/9 
f 127/185/9 126/186/3 132/178/8 
s 16
f 129/187/5 132/188/5 126/172/5 
f 126/172/5 122/171/5 129/187/5 
s 64
f 124/189/7 128/190/7 127/180/7 
f 127/180/7 121/179/7 124/189/7 
s 2
f 133/275/1 134/276/1 135/277/1 
f 135/277/1 136/278/1 133/275/1 
s 4
f 137/279/2 138/280/3 139/281/3 
f 139/281/3 140/282/2 137/279/2 
s 8
f 136/283/4 135/284/4 137/279/4 
f 137/279/4 140/282/4 136/283/4 
s 16
f 134/285/5 138/286/5 137/287/5 
f 137/287/5 135/288/5 134/285/5 
s 32
f 141/289/6 142/290/6 143/291/6 
f 143/291/6 144/292/6 141/289/6 
s 64
f 133/293/7 139/294/7 143/295/7 
f 143/295/7 142/296/7 133/293/7 
s 2
f 142/297/1 141/298/1 134/276/1 
f 134/276/1 133/275/1 142/297/1 
s 4
f 144/292/8 143/291/8 139/299/3 
f 139/299/3 138/300/3 144/292/8 
s 16
f 141/301/5 144/302/5 138/286/5 
f 138/286/5 134/285/5 141/301/5 
s 64
f 136/303/7 140/304/7 139/294/7 
f 139/294/7 133/293/7 136/303/7 
# 240 faces

